HIERARCHY
ROOT Pelvis
{
	OFFSET 0.000000 0.000000 0.000000
	CHANNELS 6 Xposition Yposition Zposition Xrotation Yrotation Zrotation
	JOINT LeftUpLeg_virtual
	{
		OFFSET 0.000000 0.000000 0.000000
		CHANNELS 3 Xrotation Yrotation Zrotation
		JOINT LeftUpLeg
		{
			OFFSET 18.735201 -5.666702 -4.541200
			CHANNELS 3 Xrotation Yrotation Zrotation
			JOINT LeftLeg
			{
				OFFSET -0.021200 -31.938179 0.493100
				CHANNELS 3 Xrotation Yrotation Zrotation
				JOINT LeftFoot
				{
					OFFSET 0.021200 -31.938179 -4.336299
					CHANNELS 3 Xrotation Yrotation Zrotation
					JOINT LeftToeBase
					{
						OFFSET 0.943001 -26.722000 15.023500
						CHANNELS 3 Xrotation Yrotation Zrotation
						End Site
						{
							OFFSET 0 0 0
						}
					}
				}
			}
		}
	}
	JOINT RightUpLeg_virtual
	{
		OFFSET 0.000000 0.000000 0.000000
		CHANNELS 3 Xrotation Yrotation Zrotation
		JOINT RightUpLeg
		{
			OFFSET -18.735201 -5.666702 -4.541200
			CHANNELS 3 Xrotation Yrotation Zrotation
			JOINT RightLeg
			{
				OFFSET 0.018946 -31.938133 0.493100
				CHANNELS 3 Xrotation Yrotation Zrotation
				JOINT RightFoot
				{
					OFFSET -0.018946 -31.938126 -4.336299
					CHANNELS 3 Xrotation Yrotation Zrotation
					JOINT RightToeBase
					{
						OFFSET -0.943001 -26.722004 15.023500
						CHANNELS 3 Xrotation Yrotation Zrotation
						End Site
						{
							OFFSET 0 0 0
						}
					}
				}
			}
		}
	}
	JOINT Hips_virtual
	{
		OFFSET 0.000000 0.000000 0.000000
		CHANNELS 3 Xrotation Yrotation Zrotation
		JOINT Hips
		{
			OFFSET -0.000000 -0.000000 -0.000000
			CHANNELS 3 Xrotation Yrotation Zrotation
			JOINT Spine
			{
				OFFSET 0.000000 10.199997 -0.299500
				CHANNELS 3 Xrotation Yrotation Zrotation
				JOINT Spine1
				{
					OFFSET 0.000000 11.900002 -1.516600
					CHANNELS 3 Xrotation Yrotation Zrotation
					JOINT Spine2
					{
						OFFSET 0.000000 13.600006 -2.842500
						CHANNELS 3 Xrotation Yrotation Zrotation
						JOINT Neck_virtual
						{
							OFFSET 0.000000 0.000000 0.000000
							CHANNELS 3 Xrotation Yrotation Zrotation
							JOINT Neck
							{
								OFFSET 0.000000 9.624100 -2.890100
								CHANNELS 3 Xrotation Yrotation Zrotation
								JOINT Head
								{
									OFFSET 0.000000 14.068802 -1.351900
									CHANNELS 3 Xrotation Yrotation Zrotation
									End Site
									{
										OFFSET 0 0 0
									}
								}
							}
						}
						JOINT LeftShoulder_virtual
						{
							OFFSET 0.000000 0.000000 0.000000
							CHANNELS 3 Xrotation Yrotation Zrotation
							JOINT LeftShoulder
							{
								OFFSET 15.263000 10.923401 -0.547700
								CHANNELS 3 Xrotation Yrotation Zrotation
								JOINT LeftArm
								{
									OFFSET 25.438599 -2.830597 -13.032500
									CHANNELS 3 Xrotation Yrotation Zrotation
									JOINT LeftForeArm
									{
										OFFSET 29.960503 0.000000 0.000000
										CHANNELS 3 Xrotation Yrotation Zrotation
										JOINT LeftHand
										{
											OFFSET 27.849251 0.000000 0.000000
											CHANNELS 3 Xrotation Yrotation Zrotation
											End Site
											{
												OFFSET 0 0 0
											}
										}
									}
								}
							}
						}
						JOINT RightShoulder_virtual
						{
							OFFSET 0.000000 0.000000 0.000000
							CHANNELS 3 Xrotation Yrotation Zrotation
							JOINT RightShoulder
							{
								OFFSET -15.263000 10.923401 -0.547700
								CHANNELS 3 Xrotation Yrotation Zrotation
								JOINT RightArm
								{
									OFFSET -25.438599 -2.830597 -13.032500
									CHANNELS 3 Xrotation Yrotation Zrotation
									JOINT RightForeArm
									{
										OFFSET -29.960503 0.000000 0.000000
										CHANNELS 3 Xrotation Yrotation Zrotation
										JOINT RightHand
										{
											OFFSET -27.849251 0.000000 0.000000
											CHANNELS 3 Xrotation Yrotation Zrotation
											End Site
											{
												OFFSET 0 0 0
											}
										}
									}
								}
							}
						}
					}
				}
			}
		}
	}
}
MOTION
Frames: 10
Frame Time: 0.03333333
-1.774152 92.657143 7.116587 0.000000 0.000000 0.000000 -7.132674 6.601286 0.458700 -19.522515 12.725356 12.534660 29.901851 -1.769701 7.055664 -1.145279 -9.594955 -14.892394 0.000000 0.000000 0.000000 -7.522889 7.870541 -0.191501 7.017697 -8.832513 7.973500 19.502697 -10.322924 -5.676518 -18.328700 -16.202114 6.176406 0.000000 0.000000 0.000000 -7.705937 6.755128 0.343218 -0.725063 -0.052701 -0.927389 3.355759 1.921831 3.524196 1.901656 0.643765 2.345732 0.000000 0.000000 0.000000 0.938342 0.633176 2.104248 5.021304 -1.372367 -0.454723 0.000000 0.000000 0.000000 1.047400 0.836345 2.159766 0.177620 -16.306129 -13.080631 2.515473 -5.464846 -70.903360 1.989317 -7.159941 1.266530 0.000000 0.000000 0.000000 1.778498 0.840566 1.986547 1.882229 8.146641 16.544258 27.640802 9.094277 59.378045 0.689739 9.121181 0.240823 0.000000 0.000000 0.000000 
-1.696000 92.758682 7.109716 0.000000 0.000000 0.000000 -6.662049 5.864320 0.291875 -19.303120 12.984587 12.626440 29.421501 -1.871068 6.803667 -1.444582 -8.745610 -14.892101 0.000000 0.000000 0.000000 -7.062199 7.101774 -0.331602 6.535365 -8.904361 7.659357 19.216112 -10.284247 -5.631335 -18.112316 -15.387498 6.203136 0.000000 0.000000 0.000000 -7.211131 6.041912 0.191838 -0.700420 -0.093863 -0.978314 3.226894 1.772291 3.593561 1.986945 0.479856 2.384518 0.000000 0.000000 0.000000 0.967755 0.484266 2.144277 4.839294 -1.239985 -0.418546 0.000000 0.000000 0.000000 1.103489 0.679221 2.184783 0.164956 -16.631893 -13.206649 3.206491 -4.107879 -71.148892 2.013875 -7.589430 1.292390 0.000000 0.000000 0.000000 1.845503 0.679447 2.029964 1.986829 7.376774 16.341053 29.110785 8.961241 58.563476 0.792593 8.861042 0.401668 0.000000 0.000000 0.000000 
-1.641868 92.855751 7.063860 0.000000 0.000000 0.000000 -6.194605 4.895018 0.060944 -19.098536 13.270333 12.793448 29.008831 -1.930112 6.553546 -1.681645 -7.722257 -14.839197 0.000000 0.000000 0.000000 -6.592882 6.104935 -0.531033 5.953780 -8.991707 7.336292 19.035001 -10.248623 -5.566494 -17.937390 -14.369133 6.209805 0.000000 0.000000 0.000000 -6.702211 5.116238 -0.017161 -0.697139 -0.140972 -1.017330 3.126281 1.708337 3.678008 2.065814 0.361182 2.439727 0.000000 0.000000 0.000000 1.007999 0.377328 2.197474 4.671411 -1.101054 -0.383044 0.000000 0.000000 0.000000 1.143057 0.567571 2.235705 0.152550 -16.927270 -13.324632 3.692910 -3.086442 -71.540733 2.060568 -7.952609 1.321016 0.000000 0.000000 0.000000 1.903577 0.561749 2.090205 2.002785 6.986259 16.367585 29.349371 8.291715 57.825809 0.898554 8.127865 0.545534 0.000000 0.000000 0.000000 
-1.617272 92.944504 6.987583 0.000000 0.000000 0.000000 -5.744224 3.792034 -0.209539 -18.961913 13.545934 13.022258 28.707927 -1.962607 6.313884 -1.894017 -6.561882 -14.743093 0.000000 0.000000 0.000000 -6.133344 4.974705 -0.768649 5.309168 -9.077257 7.016705 18.891227 -10.202413 -5.468374 -17.671967 -13.182671 6.271115 0.000000 0.000000 0.000000 -6.206732 4.057636 -0.261186 -0.684650 -0.169454 -1.023519 3.055959 1.721623 3.755722 2.146243 0.285224 2.489245 0.000000 0.000000 0.000000 1.065218 0.312248 2.239016 4.512642 -0.963985 -0.344465 0.000000 0.000000 0.000000 1.177427 0.501297 2.288311 0.152892 -17.184035 -13.369811 3.979444 -2.551735 -72.000350 2.117641 -8.179477 1.345798 0.000000 0.000000 0.000000 1.969250 0.489301 2.147367 1.948179 6.924820 16.538335 28.569035 7.273847 57.237573 0.990168 7.251036 0.636174 0.000000 0.000000 0.000000 
-1.620349 93.016602 6.887129 0.000000 0.000000 0.000000 -5.315651 2.642626 -0.493749 -18.893838 13.758243 13.275158 28.519472 -1.986568 6.096603 -2.141536 -5.317241 -14.604550 0.000000 0.000000 0.000000 -5.682822 3.796736 -1.025363 4.658073 -9.136779 6.719073 18.703471 -10.123010 -5.344202 -17.243560 -11.870952 6.436150 0.000000 0.000000 0.000000 -5.740619 2.951766 -0.517242 -0.669454 -0.176747 -1.006004 3.003168 1.783322 3.810115 2.235020 0.242077 2.518057 0.000000 0.000000 0.000000 1.150935 0.276184 2.252398 4.356580 -0.835559 -0.297854 0.000000 0.000000 0.000000 1.212793 0.469510 2.315470 0.177772 -17.399072 -13.305960 4.114155 -2.528683 -72.427640 2.168030 -8.227726 1.353161 0.000000 0.000000 0.000000 2.052365 0.453510 2.178973 1.847063 7.127892 16.686333 27.097719 6.386806 56.853470 1.071993 6.463428 0.653534 0.000000 0.000000 0.000000 
-1.644720 93.084526 6.769753 0.000000 0.000000 0.000000 -4.903102 1.519093 -0.770038 -18.861581 13.896603 13.515115 28.371902 -2.014160 5.902133 -2.401414 -4.050390 -14.440007 0.000000 0.000000 0.000000 -5.249918 2.651922 -1.282977 4.055576 -9.165421 6.444686 18.399469 -10.021386 -5.192272 -16.704379 -10.508745 6.647076 0.000000 0.000000 0.000000 -5.311704 1.873101 -0.767970 -0.637621 -0.169832 -0.977783 2.961486 1.847615 3.843944 2.340010 0.213189 2.519184 0.000000 0.000000 0.000000 1.268902 0.253942 2.234589 4.205843 -0.720048 -0.238338 0.000000 0.000000 0.000000 1.264145 0.453760 2.303758 0.223945 -17.565776 -13.132769 4.189059 -2.894965 -72.729118 2.201868 -8.200897 1.343462 0.000000 0.000000 0.000000 2.142501 0.434960 2.175536 1.748962 7.481110 16.715696 25.335747 6.155899 56.635201 1.137004 6.081313 0.588950 0.000000 0.000000 0.000000 
-1.673784 93.152100 6.649874 0.000000 0.000000 0.000000 -4.510924 0.484612 -1.024265 -18.834684 13.986626 13.720080 28.194758 -2.032433 5.718265 -2.604247 -2.815382 -14.247950 0.000000 0.000000 0.000000 -4.847648 1.592962 -1.525942 3.528887 -9.206991 6.177612 18.001259 -9.943254 -4.998997 -16.182707 -9.198647 6.803156 0.000000 0.000000 0.000000 -4.916935 0.873593 -1.002168 -0.587097 -0.171385 -0.957379 2.920980 1.880948 3.859793 2.443495 0.180341 2.497853 0.000000 0.000000 0.000000 1.402201 0.230784 2.192132 4.059676 -0.620699 -0.165020 0.000000 0.000000 0.000000 1.325647 0.437748 2.258410 0.283655 -17.696738 -12.883671 4.253956 -3.566039 -72.867573 2.204974 -8.202359 1.323719 0.000000 0.000000 0.000000 2.227666 0.412390 2.137918 1.684810 7.910623 16.602236 23.645492 6.843631 56.546105 1.187865 6.223354 0.478734 0.000000 0.000000 0.000000 
-1.700234 93.228050 6.523874 0.000000 0.000000 0.000000 -4.135700 -0.435069 -1.249972 -18.798631 14.050186 13.876035 27.927879 -2.021731 5.541304 -2.674499 -1.651313 -14.022492 0.000000 0.000000 0.000000 -4.470713 0.657099 -1.743232 3.051454 -9.290243 5.904727 17.590754 -9.913627 -4.766757 -15.722209 -7.995659 6.847734 0.000000 0.000000 0.000000 -4.548966 -0.021716 -1.210382 -0.530145 -0.199102 -0.966244 2.877659 1.870955 3.857632 2.536376 0.138047 2.465623 0.000000 0.000000 0.000000 1.536857 0.200450 2.143745 3.920389 -0.536375 -0.081030 0.000000 0.000000 0.000000 1.381335 0.412036 2.194658 0.341658 -17.800267 -12.638292 4.288029 -4.457104 -72.868686 2.171334 -8.249434 1.303166 0.000000 0.000000 0.000000 2.296277 0.376940 2.079427 1.658550 8.368198 16.388352 22.143794 8.418593 56.566694 1.217419 6.777386 0.355433 0.000000 0.000000 0.000000 
-1.707112 93.318909 6.396389 0.000000 0.000000 0.000000 -3.778506 -1.238359 -1.445999 -18.742384 14.099763 13.973810 27.568809 -1.973303 5.379183 -2.572512 -0.578681 -13.751892 0.000000 0.000000 0.000000 -4.126130 -0.153985 -1.932002 2.596408 -9.392691 5.611505 17.211196 -9.914230 -4.502886 -15.224884 -6.903045 6.790314 0.000000 0.000000 0.000000 -4.197110 -0.807859 -1.390346 -0.484438 -0.241804 -0.986937 2.846302 1.823112 3.837200 2.609045 0.087225 2.428829 0.000000 0.000000 0.000000 1.646133 0.164575 2.100727 3.791201 -0.465913 0.007583 0.000000 0.000000 0.000000 1.420466 0.375821 2.131210 0.380140 -17.902554 -12.454238 4.228342 -5.519607 -72.762360 2.100511 -8.343853 1.296668 0.000000 0.000000 0.000000 2.351677 0.330841 2.015273 1.655438 8.834588 16.163945 20.807321 10.655671 56.592369 1.202874 7.620248 0.258701 0.000000 0.000000 0.000000 
-1.694890 93.421852 6.252039 0.000000 0.000000 0.000000 -3.442479 -1.932080 -1.613082 -18.649637 14.136202 14.006852 27.103937 -1.879146 5.243477 -2.350561 0.376985 -13.450308 0.000000 0.000000 0.000000 -3.805794 -0.858255 -2.090886 2.159305 -9.475061 5.313371 16.841995 -9.916376 -4.227878 -14.645235 -5.903378 6.683863 0.000000 0.000000 0.000000 -3.855272 -1.500594 -1.545056 -0.463200 -0.279930 -1.020199 2.831265 1.763349 3.799157 2.653530 0.035944 2.394507 0.000000 0.000000 0.000000 1.717904 0.130509 2.067580 3.670638 -0.407158 0.093446 0.000000 0.000000 0.000000 1.428082 0.337419 2.079352 0.394628 -18.008897 -12.361634 4.006522 -6.796507 -72.588375 1.992378 -8.397017 1.304043 0.000000 0.000000 0.000000 2.392831 0.284075 1.958883 1.644776 9.343786 15.974496 19.507550 13.348712 56.654438 1.144606 8.489228 0.193740 0.000000 0.000000 0.000000 
